<svg width="68" height="68" viewBox="0 0 68 68" fill="none" xmlns="http://www.w3.org/2000/svg">
<path fill-rule="evenodd" clip-rule="evenodd" d="M34.1034 0.362061C43.1056 0.362061 51.5682 3.86291 57.925 10.2329C64.295 16.5897 67.7959 25.0523 67.7959 34.0545C67.7959 43.0567 64.295 51.5061 57.925 57.8761C51.5682 64.2461 43.1056 67.7469 34.1034 67.7469C25.1012 67.7469 16.6518 64.2461 10.2818 57.8761C3.91186 51.5193 0.411011 43.0567 0.411011 34.0545C0.411011 25.0523 3.91186 16.5897 10.2818 10.2329C16.6387 3.86291 25.1012 0.362061 34.1034 0.362061ZM5.34643 34.0545C5.34643 49.9136 18.2443 62.8115 34.1034 62.8115C49.9626 62.8115 62.8605 49.9136 62.8605 34.0545C62.8605 18.1954 49.9626 5.29747 34.1034 5.29747C18.2443 5.29747 5.34643 18.1954 5.34643 34.0545ZM30.3923 25.1575H37.723C39.6313 25.1575 41.1843 26.7105 41.1843 28.6188C41.1843 30.5272 39.6313 32.0802 37.723 32.0802H30.3923V25.1575ZM37.723 36.0286H30.3923V42.9514H37.723C39.6313 42.9514 41.1843 41.3984 41.1843 39.49C41.1843 37.5816 39.6313 36.0286 37.723 36.0286ZM9.29476 34.0545C9.29476 20.367 20.4159 9.2458 34.1034 9.2458C47.791 9.2458 58.9121 20.367 58.9121 34.0545C58.9121 47.7421 47.791 58.8632 34.1034 58.8632C20.4159 58.8632 9.29476 47.7421 9.29476 34.0545ZM40.0523 46.5181C43.0004 45.5442 45.1324 42.7672 45.1324 39.4901C45.1324 37.3448 44.2112 35.4101 42.7503 34.0545C44.2112 32.6989 45.1324 30.7642 45.1324 28.619C45.1324 25.355 43.0004 22.5649 40.0523 21.5909V18.4849H36.1039V21.2093H33.6954V18.4849H29.7471V21.2093H26.4437V32.0804V36.0287V46.8998H29.7471V49.6241H33.6954V46.8998H36.1039V49.6241H40.0523V46.5181Z" fill="url(#paint0_linear)"/>
<defs>
<linearGradient id="paint0_linear" x1="39.7849" y1="0.362053" x2="-6.31754" y2="5.33206" gradientUnits="userSpaceOnUse">
<stop stop-color="#FD6946"/>
<stop offset="1" stop-color="#F74153"/>
</linearGradient>
</defs>
</svg>
