<svg width="36" height="79" viewBox="0 0 36 79" fill="none" xmlns="http://www.w3.org/2000/svg">
<path d="M30.5 25.2242V3.61705C30.5 1.61815 28.8 0 26.7 0H9.3C7.2 0 5.5 1.61815 5.5 3.61705V25.2242C2.2 26.7471 0 29.9834 0 33.6005V75.2917C0 77.0051 1.5 78.4329 3.3 78.4329H32.7C34.5 78.4329 36 77.0051 36 75.2917V33.6957C36 29.9834 33.8 26.7471 30.5 25.2242ZM26.5 3.80742V20.4649H23.5V7.13891H20.4C19.5 8.37632 16.7 9.61374 13.4 10.28C13.1 10.3752 12.8 10.3752 12.6 10.3752V20.4649H9.6V3.80742H26.5ZM29.4 51.4002H6.6C6 51.4002 5.5 50.9243 5.5 50.3531V35.3138C5.5 34.7427 6 34.2668 6.6 34.2668H29.5C30.1 34.2668 30.6 34.7427 30.6 35.3138V50.4483C30.5 50.9242 30 51.4002 29.4 51.4002Z" fill="url(#paint0_linear)"/>
<defs>
<linearGradient id="paint0_linear" x1="21.0353" y1="-9.15853e-06" x2="-3.82008" y2="1.22986" gradientUnits="userSpaceOnUse">
<stop stop-color="#FD6946"/>
<stop offset="1" stop-color="#F74153"/>
</linearGradient>
</defs>
</svg>
