<svg width="54" height="61" viewBox="0 0 54 61" fill="none" xmlns="http://www.w3.org/2000/svg">
<path fill-rule="evenodd" clip-rule="evenodd" d="M4.56024 0.741333H40.1864C40.1864 2.71798 41.8769 4.32711 43.9535 4.32711V30.7089C42.3987 30.2818 40.7603 30.0533 39.0594 30.0533C29.3337 30.0533 21.455 37.5527 21.455 46.8102C21.455 50.7138 22.8533 54.2996 25.2013 57.1503H4.56024C4.56024 55.1737 2.86972 53.5645 0.793091 53.5645V4.32711C2.86972 4.32711 4.56024 2.71798 4.56024 0.741333ZM6.66817 8.53867C6.15684 9.02538 6.15684 9.81008 6.66817 10.2968L8.58827 12.1046L6.67861 13.9223C6.16728 14.409 6.16728 15.1937 6.67861 15.6804C6.92905 15.9288 7.26298 16.0479 7.59691 16.0479C7.93084 16.0479 8.26477 15.9188 8.51522 15.6804L10.4353 13.8726L12.345 15.6904C12.5954 15.9387 12.9294 16.0579 13.2633 16.0579C13.5972 16.0579 13.9311 15.9288 14.1816 15.6904C14.6929 15.2036 14.6929 14.4189 14.1816 13.9322L12.2719 12.1145L14.1816 10.2968C14.6929 9.81008 14.6929 9.02538 14.1816 8.53867C13.6703 8.05195 12.8459 8.05195 12.3345 8.53867L10.4249 10.3564L8.51522 8.53867C8.00389 8.05195 7.1795 8.05195 6.66817 8.53867ZM6.66817 20.7561C6.15684 21.2429 6.15684 22.0276 6.66817 22.5143L8.58827 24.3221L6.67861 26.1398C6.16728 26.6265 6.16728 27.4112 6.67861 27.8979C6.92905 28.1462 7.26298 28.2654 7.59691 28.2654C7.93084 28.2654 8.26477 28.1363 8.51522 27.8979L10.4353 26.0901L12.345 27.9078C12.5954 28.1562 12.9294 28.2754 13.2633 28.2754C13.5972 28.2754 13.9311 28.1462 14.1816 27.9078C14.6929 27.4211 14.6929 26.6364 14.1816 26.1497L12.2719 24.332L14.1816 22.5143C14.6929 22.0276 14.6929 21.2429 14.1816 20.7561C13.6703 20.2694 12.8459 20.2694 12.3345 20.7561L10.4249 22.5739L8.51522 20.7561C8.00389 20.2694 7.1795 20.2694 6.66817 20.7561ZM7.58648 49.4424H16.2791C16.9991 49.4424 17.5835 48.8861 17.5835 48.2008C17.5835 47.5154 16.9991 46.9592 16.2791 46.9592H7.58648C6.86644 46.9592 6.28206 47.5154 6.28206 48.2008C6.28206 48.8861 6.86644 49.4424 7.58648 49.4424ZM7.58648 43.8104H16.2791C16.9991 43.8104 17.5835 43.2542 17.5835 42.5688C17.5835 41.8834 16.9991 41.3272 16.2791 41.3272H7.58648C6.86644 41.3272 6.28206 41.8834 6.28206 42.5688C6.28206 43.2542 6.86644 43.8104 7.58648 43.8104ZM7.58648 38.1884H16.2791C16.9991 38.1884 17.5835 37.6322 17.5835 36.9468C17.5835 36.2614 16.9991 35.7052 16.2791 35.7052H7.58648C6.86644 35.7052 6.28206 36.2614 6.28206 36.9468C6.28206 37.6322 6.86644 38.1884 7.58648 38.1884ZM26.13 27.8979C26.6414 27.4112 26.6414 26.6265 26.13 26.1398L24.2412 24.3221L26.1509 22.5043C26.6622 22.0176 26.6622 21.2329 26.1509 20.7462C25.6396 20.2595 24.8152 20.2595 24.3038 20.7462L22.3942 22.5639L20.4845 20.7462C19.9732 20.2595 19.1488 20.2595 18.6375 20.7462C18.1261 21.2329 18.1261 22.0176 18.6375 22.5043L20.5471 24.3221L18.6375 26.1398C18.1261 26.6265 18.1261 27.4112 18.6375 27.8979C18.8879 28.1462 19.2219 28.2654 19.5558 28.2654C19.8897 28.2654 20.2236 28.1363 20.4741 27.8979L22.3837 26.0802L24.2934 27.8979C24.5439 28.1462 24.8778 28.2654 25.2117 28.2654C25.5352 28.2654 25.8796 28.1363 26.13 27.8979ZM26.13 15.6804C26.6414 15.1937 26.6414 14.409 26.13 13.9223L24.2412 12.1046L26.1509 10.2869C26.6622 9.80015 26.6622 9.01545 26.1509 8.52873C25.6396 8.04202 24.8152 8.04202 24.3038 8.52873L22.3942 10.3465L20.4845 8.52873C19.9732 8.04202 19.1488 8.04202 18.6375 8.52873C18.1261 9.01545 18.1261 9.80015 18.6375 10.2869L20.5471 12.1046L18.6375 13.9223C18.1261 14.409 18.1261 15.1937 18.6375 15.6804C18.8879 15.9288 19.2219 16.0479 19.5558 16.0479C19.8897 16.0479 20.2236 15.9188 20.4741 15.6804L22.3837 13.8627L24.2934 15.6804C24.5439 15.9288 24.8778 16.0479 25.2117 16.0479C25.5457 16.0479 25.8796 15.9188 26.13 15.6804ZM38.6837 15.6804C39.195 15.1937 39.195 14.409 38.6837 13.9223L36.7949 12.1046L38.7046 10.2869C39.2159 9.80015 39.2159 9.01545 38.7046 8.52873C38.1932 8.04202 37.3689 8.04202 36.8575 8.52873L34.9479 10.3465L33.0382 8.52873C32.5269 8.04202 31.7025 8.04202 31.1912 8.52873C30.6798 9.01545 30.6798 9.80015 31.1912 10.2869L33.1008 12.1046L31.1912 13.9223C30.6798 14.409 30.6798 15.1937 31.1912 15.6804C31.4416 15.9288 31.7755 16.0479 32.1095 16.0479C32.4434 16.0479 32.7773 15.9188 33.0278 15.6804L34.9374 13.8627L36.8471 15.6804C37.0975 15.9288 37.4315 16.0479 37.7654 16.0479C38.0993 16.0479 38.4333 15.9188 38.6837 15.6804ZM39.0593 32.8942C40.7812 32.8942 42.4195 33.1723 43.9535 33.6888C49.6303 35.6058 53.6896 40.761 53.6896 46.8201C53.6896 54.5081 47.1363 60.7459 39.0593 60.7459C35.2922 60.7459 31.859 59.3851 29.2606 57.1602C26.2865 54.6074 24.429 50.9223 24.429 46.8201C24.429 39.132 30.9824 32.8942 39.0593 32.8942ZM38.1828 55.7C38.9028 55.7 39.4872 55.1438 39.4872 54.4584H39.4767V49.9787C39.4767 49.2933 38.8924 48.7371 38.1723 48.7371H32.8608L37.3688 40.0657C37.6819 39.4598 37.421 38.7148 36.774 38.4069C36.1374 38.1089 35.3548 38.3572 35.0313 38.9731L29.5945 49.4423C29.3962 49.8198 29.4171 50.2767 29.6571 50.6442C29.8971 51.0117 30.3145 51.2302 30.7633 51.2302H36.8783V54.4584C36.8783 55.1438 37.4627 55.7 38.1828 55.7ZM43.4004 55.7C44.1205 55.7 44.7048 55.1438 44.7048 54.4584V39.5194C44.7048 39.0525 44.4335 38.6354 44.0057 38.4168C43.9904 38.4168 43.9807 38.4115 43.9684 38.4048C43.9639 38.4023 43.9591 38.3996 43.9535 38.397C43.5361 38.2083 43.0456 38.248 42.6595 38.4963L39.2159 40.7511C38.6211 41.1385 38.475 41.9132 38.8819 42.4794C39.2889 43.0456 40.1029 43.1846 40.6977 42.7972L42.096 41.8834V54.4584C42.096 55.1438 42.6804 55.7 43.4004 55.7Z" fill="url(#paint0_linear)"/>
<defs>
<linearGradient id="paint0_linear" x1="31.7013" y1="0.741326" x2="-4.58167" y2="4.18942" gradientUnits="userSpaceOnUse">
<stop stop-color="#FD6946"/>
<stop offset="1" stop-color="#F74153"/>
</linearGradient>
</defs>
</svg>
