<svg width="78" height="65" viewBox="0 0 78 65" fill="none" xmlns="http://www.w3.org/2000/svg">
<path fill-rule="evenodd" clip-rule="evenodd" d="M36.5165 8.44607L29.4801 1.50019C28.6479 0.672955 27.513 0.20229 26.3024 0.173764C25.0919 0.145239 23.9418 0.573117 23.0642 1.35756L1.83399 20.4694C0.956334 21.2539 0.456979 22.3236 0.426715 23.4646C0.396451 24.6056 0.850411 25.6895 1.68267 26.5168L15.4074 40.0662V17.0036C15.4074 12.2827 19.4779 8.44607 24.4866 8.44607H36.5165ZM74.4836 8.94577L46.0354 2.14245C44.8551 1.85719 43.6446 2.02835 42.6005 2.61312C41.5563 3.19789 40.8149 4.12497 40.5274 5.23746L39.6497 8.44657H53.8435C58.8522 8.44657 62.9228 12.2832 62.9228 17.0042V59.5784C63.407 59.4786 63.8761 59.3075 64.2998 59.065C65.3439 58.4802 66.0854 57.5531 66.3729 56.4406L77.7521 14.1374C78.3726 11.8554 76.9047 9.51628 74.4836 8.94577ZM24.4875 12.7253H53.8436C56.3404 12.7253 58.3832 14.6508 58.3832 17.0041V60.648C58.3832 63.0013 56.3404 64.9268 53.8436 64.9268H24.4875C21.9907 64.9268 19.9479 63.0013 19.9479 60.648V17.0041C19.9479 14.6508 21.9907 12.7253 24.4875 12.7253ZM32.9614 22.8518C32.9614 21.668 31.9476 20.7124 30.6916 20.7124C29.4357 20.7124 28.4218 21.668 28.4218 22.8518C28.4218 24.0356 29.4357 24.9912 30.6916 24.9912C31.9476 24.9912 32.9614 24.0356 32.9614 22.8518ZM37.6523 48.4106C38.076 48.7671 38.6208 48.9526 39.1655 48.9526C39.7103 48.9526 40.255 48.7671 40.6939 48.4106L47.4579 42.7055L47.5033 42.6627C49.1981 41.1509 50.0152 38.8546 49.6823 36.544C49.3645 34.3333 48.0329 32.4506 46.1111 31.4807C45.1881 31.0243 44.2045 30.7819 43.1906 30.7819C41.6623 30.7819 40.255 31.3239 39.1655 32.2509C38.076 31.3381 36.6688 30.7819 35.1404 30.7819C34.1417 30.7819 33.1581 31.0101 32.2199 31.4807C30.3133 32.4506 28.9817 34.3333 28.6639 36.544C28.331 38.8688 29.1481 41.1509 30.8429 42.6627L30.8883 42.7055L37.6523 48.4106ZM45.3697 54.8003C45.3697 55.9841 46.3835 56.9397 47.6395 56.9397C48.8954 56.9397 49.9093 55.9841 49.9093 54.8003C49.9093 53.6165 48.8954 52.6609 47.6395 52.6609C46.3835 52.6609 45.3697 53.6165 45.3697 54.8003Z" fill="url(#paint0_linear)"/>
<defs>
<linearGradient id="paint0_linear" x1="45.6915" y1="0.172417" x2="-7.04889" y2="6.97441" gradientUnits="userSpaceOnUse">
<stop stop-color="#FD6946"/>
<stop offset="1" stop-color="#F74153"/>
</linearGradient>
</defs>
</svg>
