<svg width="54" height="65" viewBox="0 0 54 65" fill="none" xmlns="http://www.w3.org/2000/svg">
<path d="M31.2443 42.8204C31.0041 42.5674 30.7037 42.3739 30.3884 42.2101C29.7127 41.8529 28.9619 41.6445 28.2261 41.451V47.1073C29.4274 46.9733 30.7938 46.5416 31.4245 45.4402C31.7249 44.9043 31.7849 44.2643 31.6648 43.6689C31.5897 43.3563 31.4546 43.0586 31.2443 42.8204ZM31.4245 45.455C31.4245 45.4402 31.4245 45.4402 31.4245 45.455C31.4245 45.4402 31.4245 45.4402 31.4245 45.455ZM22.625 33.7704C22.4148 34.0681 22.2946 34.4105 22.2496 34.7677C22.2195 35.1249 22.2346 35.5268 22.3697 35.8692C22.5049 36.1967 22.7751 36.4348 23.0605 36.6283C23.3758 36.8367 23.7362 37.0153 24.0816 37.1493C24.3819 37.2684 24.7122 37.3874 25.0877 37.4916V32.3712C24.1717 32.5647 23.1656 32.9815 22.625 33.7704ZM31.4546 45.3955C31.4395 45.4104 31.4395 45.4253 31.4245 45.4402C31.4395 45.4253 31.4395 45.4104 31.4546 45.3955ZM31.4846 45.3508C31.4846 45.336 31.4846 45.336 31.4846 45.3508V45.3508ZM30.2382 14.5689C35.0885 10.5203 38.332 1.4256 36.3349 1.02371C33.677 0.487853 27.9257 2.80989 25.1327 3.22667C21.1834 3.70298 16.8888 -1.01552 14.4711 1.60422C12.504 3.74764 15.8827 11.5175 21.1534 14.8964C5.41632 22.5621 -16.6877 61.0246 21.8892 63.823C75.2571 67.693 48.5431 22.0263 30.2382 14.5689ZM34.8182 44.9043C34.653 46.4077 33.8572 47.7622 32.6559 48.6851C31.3945 49.6526 29.8028 50.114 28.2261 50.2331V51.8853C28.2261 52.3319 28.0309 52.7635 27.7005 53.0463C27.235 53.4482 26.5593 53.5524 26.0037 53.2994C25.448 53.0463 25.0877 52.4807 25.0877 51.8853V50.0694C24.8174 50.0247 24.5471 49.9652 24.2768 49.8907C22.8052 49.4888 21.4387 48.6999 20.4326 47.5538C19.9371 46.9733 19.5316 46.3184 19.2463 45.6188C19.1712 45.4402 19.1112 45.2467 19.0511 45.0532C19.0061 44.8745 18.946 44.7108 18.931 44.5322C18.9009 44.2345 18.961 43.9219 19.0962 43.654C19.3815 43.1032 19.9971 42.7758 20.6278 42.8204C21.2435 42.88 21.7841 43.2967 21.9793 43.8772C22.0394 44.0559 22.0844 44.2345 22.1445 44.4131C22.2045 44.5917 22.2946 44.7555 22.3847 44.9192C22.5649 45.2467 22.8052 45.5295 23.0755 45.7974C23.6311 46.3332 24.3368 46.6756 25.0726 46.8691V40.7068C23.6311 40.3346 22.1445 39.8583 20.9582 38.9504C20.3876 38.5038 19.892 37.9531 19.5617 37.2981C19.2163 36.6134 19.0811 35.8394 19.0811 35.0654C19.0811 34.2914 19.2313 33.5174 19.5466 32.8029C19.847 32.1331 20.2975 31.5377 20.838 31.0465C21.9943 29.9897 23.526 29.4092 25.0726 29.1859V29.0817V27.5039C25.0726 27.0573 25.2679 26.6257 25.5982 26.3429C26.0637 25.941 26.7394 25.8368 27.2951 26.0898C27.8507 26.3429 28.211 26.9085 28.211 27.5039V29.0817V29.2008C28.4213 29.2305 28.6165 29.2603 28.8267 29.2901C30.3434 29.558 31.815 30.1832 32.9262 31.2549C33.4517 31.761 33.8722 32.3712 34.1875 33.0411C34.2776 33.2197 34.3527 33.4132 34.4128 33.6067C34.4728 33.7853 34.5329 33.9788 34.5629 34.1574C34.608 34.4551 34.5629 34.7677 34.4278 35.0505C34.1575 35.6161 33.5719 35.9734 32.9412 35.9436C32.3255 35.9138 31.7699 35.5119 31.5447 34.9463C31.4846 34.7826 31.4395 34.5891 31.3795 34.4254C31.3044 34.2467 31.2293 34.083 31.1242 33.9342C30.929 33.6365 30.6737 33.3685 30.3884 33.1601C29.7577 32.6987 28.9919 32.4606 28.2261 32.3266V38.221C29.127 38.4294 30.043 38.6675 30.914 39.0099C32.2204 39.516 33.4667 40.3049 34.1875 41.5552C34.0824 41.3617 33.9623 41.1682 34.1875 41.5552C34.4128 41.9422 34.3077 41.7487 34.1875 41.5701C34.7581 42.5823 34.9534 43.773 34.8182 44.9043ZM31.4095 45.4848C31.3945 45.4997 31.3945 45.5146 31.3795 45.5295C31.3795 45.5146 31.3945 45.4997 31.4095 45.4848Z" fill="url(#paint0_linear)"/>
<defs>
<linearGradient id="paint0_linear" x1="31.3542" y1="0.807244" x2="-4.9915" y2="4.08696" gradientUnits="userSpaceOnUse">
<stop stop-color="#FD6946"/>
<stop offset="1" stop-color="#F74153"/>
</linearGradient>
</defs>
</svg>
