<svg width="60" height="58" viewBox="0 0 60 58" fill="none" xmlns="http://www.w3.org/2000/svg">
<path d="M59.7931 4.0358L59.7931 31.3631C59.7931 33.0694 58.3299 34.4642 56.5081 34.4642L40.2411 34.4642L40.2411 26.4745C40.2411 22.9266 37.1856 20.0422 33.4273 20.0422L24.2896 20.0422L24.2896 4.04934C24.2896 2.34307 25.7528 0.94827 27.5746 0.94827L56.5081 0.948269C58.3156 0.948269 59.7931 2.32953 59.7931 4.0358ZM45.2044 23.9964C45.2044 25.7974 46.7393 27.2464 48.6472 27.2464C50.555 27.2464 52.0899 25.7974 52.0899 23.9964C52.0899 22.1953 50.555 20.7464 48.6472 20.7464C46.7393 20.7464 45.2044 22.2089 45.2044 23.9964ZM31.9498 11.4838C31.9498 13.2848 33.4847 14.7338 35.3925 14.7338C37.3004 14.7338 38.8353 13.2848 38.8353 11.4838C38.8353 9.68272 37.3004 8.23375 35.3925 8.23375C33.4847 8.23375 31.9498 9.68272 31.9498 11.4838ZM36.1241 27.0162L36.1241 54.33C36.1241 56.0498 34.6466 57.431 32.8392 57.431L3.90565 57.431C2.0982 57.431 0.620682 56.0498 0.620682 54.33L0.62068 27.0162C0.62068 25.3099 2.08385 23.9151 3.90565 23.9151L32.8392 23.9151C34.6466 23.9151 36.1241 25.3099 36.1241 27.0162ZM3.20275 51.757C3.20275 53.5581 4.73764 55.0071 6.64551 55.0071C8.55337 55.0071 10.0883 53.5581 10.0883 51.757C10.0883 49.956 8.53902 48.507 6.64551 48.507C4.73764 48.507 3.20275 49.9695 3.20275 51.757ZM26.5992 51.757C26.5992 53.5581 28.1341 55.0071 30.0419 55.0071C31.9498 55.0071 33.4847 53.5581 33.4847 51.757C33.4847 49.956 31.9354 48.507 30.0419 48.507C28.1484 48.507 26.5992 49.9695 26.5992 51.757ZM14.9368 40.6799C14.9368 42.4809 16.4717 43.9299 18.3796 43.9299C20.2874 43.9299 21.8223 42.4674 21.8223 40.6799C21.8223 38.8788 20.2731 37.4298 18.3796 37.4298C16.4717 37.4298 14.9368 38.8788 14.9368 40.6799ZM3.20275 29.6704C3.20275 31.4714 4.73764 32.9204 6.64551 32.9204C8.55337 32.9204 10.0883 31.4714 10.0883 29.6704C10.0883 27.8693 8.53902 26.4204 6.64551 26.4204C4.73764 26.4204 3.20275 27.8693 3.20275 29.6704ZM26.5992 29.6704C26.5992 31.4714 28.1341 32.9204 30.0419 32.9204C31.9498 32.9204 33.4847 31.4714 33.4847 29.6704C33.4847 27.8693 31.9354 26.4204 30.0419 26.4204C28.1484 26.4204 26.5992 27.8693 26.5992 29.6704Z" fill="url(#paint0_linear)"/>
<defs>
<linearGradient id="paint0_linear" x1="59.7931" y1="24.4274" x2="55.8125" y2="63.1105" gradientUnits="userSpaceOnUse">
<stop stop-color="#FD6946"/>
<stop offset="1" stop-color="#F74153"/>
</linearGradient>
</defs>
</svg>
