<svg width="70" height="66" viewBox="0 0 70 66" fill="none" xmlns="http://www.w3.org/2000/svg">
<path fill-rule="evenodd" clip-rule="evenodd" d="M58.2327 48.0412L62.6164 52.2138C71.4115 40.8278 71.4115 25.3219 62.6164 13.9227L58.2327 18.0954C64.6907 27.1252 64.6907 39.0114 58.2327 48.0412ZM62.0633 11.1717C63.1834 10.1055 63.1834 8.38111 62.0633 7.3149C60.9431 6.2487 59.1315 6.2487 58.0114 7.3149L51.263 13.7384C50.1567 14.8178 50.1705 16.529 51.2768 17.582C52.3969 18.6351 54.1947 18.6482 55.3148 17.5952L62.0633 11.1717ZM50.7236 10.9611L55.1074 6.78838C43.1455 -1.58327 26.8552 -1.58327 14.8933 6.78838L19.2632 10.9611C28.7497 4.81394 41.2371 4.81394 50.7236 10.9611ZM11.9892 7.3149C10.8691 6.2487 9.05752 6.2487 7.93739 7.3149C6.81725 8.38111 6.81725 10.1055 7.93739 11.1717L14.6858 17.5952C15.8198 18.6219 17.6037 18.6219 18.7377 17.5952C19.8578 16.529 19.8578 14.8046 18.7377 13.7384L11.9892 7.3149ZM11.768 18.1085L7.38423 13.9359C-1.41087 25.3219 -1.41087 40.8279 7.38423 52.227L11.768 48.0543C5.30992 39.0245 5.30992 27.1384 11.768 18.1085ZM7.93739 54.9781C6.81725 56.0443 6.81725 57.7686 7.93739 58.8348C9.05752 59.901 10.8691 59.901 11.9892 58.8348L18.7377 52.4113C19.4706 51.7268 19.761 50.7132 19.4983 49.7655C19.2355 48.8178 18.4611 48.0807 17.4654 47.8306C16.4697 47.5805 15.4049 47.8569 14.6858 48.5545L7.93739 54.9781ZM19.277 55.1887L14.8933 59.3613C26.8552 67.733 43.1455 67.733 55.1212 59.3613L50.7375 55.1887C41.2509 61.3358 28.7635 61.3358 19.277 55.1887ZM58.0252 58.8348C59.1592 59.8615 60.9431 59.8615 62.0771 58.8348C63.1834 57.7686 63.1834 56.0443 62.0771 54.9781L55.3286 48.5545C54.1947 47.5015 52.3969 47.5146 51.2906 48.5677C50.1843 49.6339 50.1705 51.3451 51.2768 52.4113L58.0252 58.8348ZM43.9212 20.2934C46.5455 19.8612 49.2075 20.5941 51.2465 22.2855C53.5121 24.1461 54.8715 26.8712 55.0036 29.7842C55.2678 36.9773 48.8385 42.2936 38.1465 51.1347L38.125 51.1525L35.7839 53.0694C35.3308 53.4453 34.67 53.4453 34.2169 53.0694L31.8758 51.1525L31.7471 51.0459C21.138 42.2579 14.734 36.9532 14.9972 29.7842C15.1105 26.8712 16.4887 24.1273 18.7543 22.2855C20.3969 20.9324 22.4359 20.1994 24.5693 20.1806C25.0602 20.1806 25.5699 20.2182 26.0608 20.2934C29.0816 20.8572 31.7814 22.5486 33.5939 25.0106C33.896 25.4804 34.4246 25.7623 34.991 25.7623C35.5574 25.7623 36.0671 25.4804 36.3881 25.0106C38.2006 22.5298 40.9004 20.8384 43.9212 20.2934ZM23.04 28.2055C24.0029 27.247 25.3245 26.7396 26.665 26.8148C27.5712 26.8148 28.3264 26.0818 28.3264 25.1609C28.3264 24.2589 27.5901 23.5071 26.665 23.5071C24.4371 23.4131 22.266 24.2589 20.6801 25.8375C19.0941 27.4162 18.2446 29.5774 18.339 31.7951C18.339 32.6972 19.0753 33.4489 19.9815 33.4489H20.0004C20.9066 33.4489 21.6429 32.716 21.6618 31.8139C21.5863 30.4607 22.0772 29.164 23.04 28.2055Z" fill="url(#paint0_linear)"/>
<defs>
<linearGradient id="paint0_linear" x1="40.7695" y1="0.509636" x2="-5.98877" y2="5.80531" gradientUnits="userSpaceOnUse">
<stop stop-color="#FD6946"/>
<stop offset="1" stop-color="#F74153"/>
</linearGradient>
</defs>
</svg>
